<svg width="1919" height="647" viewBox="0 0 1919 647" fill="none" xmlns="http://www.w3.org/2000/svg">
<path d="M320.6 613.514V601.514L333.8 597.914C340.2 595.914 344.4 593.114 346.4 589.514C348.4 585.514 349.6 580.314 350 573.914V455.114C350 441.914 350 430.714 350 421.514C350 412.314 349.8 401.514 349.4 389.114C349.4 382.314 348.4 377.114 346.4 373.514C344.4 369.514 340 366.714 333.2 365.114L320.6 362.114V351.314L417.8 316.514L425 323.114L429.2 363.314C443.2 350.514 458.8 339.514 476 330.314C493.2 321.114 510.8 316.514 528.8 316.514C548.8 316.514 564.4 320.514 575.6 328.514C586.8 336.514 595.4 348.714 601.4 365.114C616.6 349.914 633.4 338.114 651.8 329.714C670.2 320.914 688.4 316.514 706.4 316.514C733.6 316.514 754 323.314 767.6 336.914C781.2 350.514 788 371.914 788 401.114V574.514C788 587.314 793.6 595.314 804.8 598.514L816.2 601.514V613.514H681.2V601.514L692 598.514C702.8 594.914 708.2 586.714 708.2 573.914V398.114C708.2 380.914 705 369.314 698.6 363.314C692.6 356.914 682.6 353.714 668.6 353.714C657.8 353.714 647.6 355.914 638 360.314C628.4 364.714 617.8 371.514 606.2 380.714C608.6 392.714 609.8 406.514 609.8 422.114V574.514C610.2 581.314 611.4 586.714 613.4 590.714C615.8 594.314 620.2 596.914 626.6 598.514L636.8 601.514V613.514H501.2V601.514L513.8 597.914C520.2 595.914 524.4 593.114 526.4 589.514C528.8 585.514 530 580.314 530 573.914V398.714C530 382.314 527 370.714 521 363.914C515 357.114 504.8 353.714 490.4 353.714C472 353.714 452.2 362.514 431 380.114V574.514C431 587.714 436.6 595.714 447.8 598.514L458 601.514V613.514H320.6ZM990.913 621.914C961.313 621.914 935.313 615.714 912.913 603.314C890.913 590.914 873.713 573.314 861.313 550.514C849.313 527.714 843.313 500.514 843.313 468.914C843.313 437.314 849.713 410.114 862.513 387.314C875.713 364.514 893.313 347.114 915.313 335.114C937.713 322.714 962.913 316.514 990.913 316.514C1018.91 316.514 1043.91 322.714 1065.91 335.114C1088.31 347.114 1105.91 364.514 1118.71 387.314C1131.91 409.714 1138.51 436.914 1138.51 468.914C1138.51 500.514 1132.31 527.914 1119.91 551.114C1107.91 573.914 1090.91 591.514 1068.91 603.914C1046.91 615.914 1020.91 621.914 990.913 621.914ZM990.913 605.114C1005.31 605.114 1016.91 601.314 1025.71 593.714C1034.91 585.714 1041.51 571.914 1045.51 552.314C1049.51 532.714 1051.51 505.314 1051.51 470.114C1051.51 434.514 1049.51 406.914 1045.51 387.314C1041.51 367.314 1034.91 353.514 1025.71 345.914C1016.91 337.914 1005.31 333.914 990.913 333.914C976.513 333.914 964.913 337.914 956.113 345.914C947.313 353.514 940.713 367.314 936.313 387.314C932.313 406.914 930.313 434.514 930.313 470.114C930.313 505.314 932.313 532.714 936.313 552.314C940.713 571.914 947.313 585.714 956.113 593.714C964.913 601.314 976.513 605.114 990.913 605.114ZM1295.04 621.914C1271.44 621.914 1250.24 616.714 1231.44 606.314C1212.64 595.514 1197.84 579.114 1187.04 557.114C1176.64 534.714 1171.44 506.314 1171.44 471.914C1171.44 437.514 1177.44 408.914 1189.44 386.114C1201.44 362.914 1217.44 345.514 1237.44 333.914C1257.44 322.314 1279.44 316.514 1303.44 316.514C1317.84 316.514 1331.64 318.314 1344.84 321.914C1358.04 325.114 1369.64 330.114 1379.64 336.914V258.914C1379.64 250.514 1378.24 244.514 1375.44 240.914C1373.04 236.914 1367.84 233.914 1359.84 231.914L1347.84 229.514V218.114L1452.24 192.314L1460.04 197.714L1457.64 282.314V570.914C1457.64 578.514 1459.04 584.914 1461.84 590.114C1464.64 594.914 1469.64 598.314 1476.84 600.314L1483.44 602.114V613.514L1383.84 620.114L1378.44 594.914C1367.64 603.314 1355.24 609.914 1341.24 614.714C1327.24 619.514 1311.84 621.914 1295.04 621.914ZM1328.04 594.314C1345.24 594.314 1361.44 588.714 1376.64 577.514V354.314C1361.84 345.114 1345.84 340.514 1328.64 340.514C1309.04 340.514 1292.24 350.914 1278.24 371.714C1264.24 392.114 1257.24 425.114 1257.24 470.714C1257.24 516.314 1263.84 548.314 1277.04 566.714C1290.24 585.114 1307.24 594.314 1328.04 594.314ZM1591.78 621.914C1568.98 621.914 1549.58 615.514 1533.58 602.714C1517.98 589.514 1510.18 570.714 1510.18 546.314C1510.18 527.114 1519.38 509.514 1537.78 493.514C1556.58 477.114 1585.98 465.114 1625.98 457.514C1632.78 455.914 1640.58 454.514 1649.38 453.314C1658.58 451.714 1667.58 450.114 1676.38 448.514V405.914C1676.38 378.714 1672.98 359.914 1666.18 349.514C1659.38 339.114 1648.58 333.914 1633.78 333.914H1631.98C1622.78 333.914 1615.38 336.914 1609.78 342.914C1604.58 348.514 1601.18 357.914 1599.58 371.114L1597.78 378.914C1596.58 394.914 1592.38 406.714 1585.18 414.314C1577.98 421.514 1568.98 425.114 1558.18 425.114C1548.18 425.114 1539.78 422.114 1532.98 416.114C1526.58 409.714 1523.38 401.514 1523.38 391.514C1523.38 375.114 1528.98 361.314 1540.18 350.114C1551.38 338.914 1566.18 330.514 1584.58 324.914C1603.38 319.314 1623.58 316.514 1645.18 316.514C1680.78 316.514 1707.98 325.114 1726.78 342.314C1745.58 359.514 1754.98 387.514 1754.98 426.314V560.114C1754.98 577.314 1763.18 585.914 1779.58 585.914H1793.38L1799.38 592.514C1792.18 601.714 1784.18 608.714 1775.38 613.514C1766.58 618.714 1754.58 621.314 1739.38 621.314C1722.18 621.314 1708.38 617.314 1697.98 609.314C1687.98 600.914 1681.38 589.914 1678.18 576.314C1665.38 589.914 1652.78 600.914 1640.38 609.314C1627.98 617.714 1611.78 621.914 1591.78 621.914ZM1626.58 583.514C1634.58 583.514 1642.18 581.714 1649.38 578.114C1656.58 574.514 1665.58 568.514 1676.38 560.114V464.114C1665.98 465.714 1655.38 467.714 1644.58 470.114C1627.38 474.114 1613.38 481.514 1602.58 492.314C1592.18 503.114 1586.98 517.714 1586.98 536.114C1586.98 552.114 1590.58 564.114 1597.78 572.114C1605.38 579.714 1614.98 583.514 1626.58 583.514Z" fill="black"/>
<path d="M98.7097 645.26C77.0968 645.26 60 637.034 47.4194 620.582C35.1613 603.808 29.0323 580.905 29.0323 551.872C29.0323 529.292 32.5806 507.84 39.6774 487.518C46.7742 467.195 56.4516 449.292 68.7097 433.808C81.2903 418.001 95.6452 405.582 111.774 396.55C127.903 387.518 144.677 383.001 162.097 383.001C177.258 383.001 191.613 386.55 205.161 393.647C218.71 400.421 230.806 410.421 241.452 423.647L209.032 448.324C206.129 433.163 200.806 421.55 193.065 413.485C185.323 405.421 175.806 401.389 164.516 401.389C152.903 401.389 141.774 405.421 131.129 413.485C120.484 421.55 110.968 432.518 102.581 446.389C94.5161 460.26 88.0645 476.066 83.2258 493.808C78.3871 511.227 75.9677 529.453 75.9677 548.485C75.9677 571.066 79.6774 587.84 87.0968 598.808C94.5161 609.776 105.161 615.26 119.032 615.26C129.677 615.26 139.355 612.034 148.065 605.582C157.097 598.808 165.161 588.969 172.258 576.066V590.582C163.871 608.324 153.387 621.872 140.806 631.227C128.548 640.582 114.516 645.26 98.7097 645.26ZM185.323 514.614L212.419 417.356C222.419 413.485 232.258 408.485 241.935 402.356C251.613 396.227 260.645 389.292 269.032 381.55L279.677 396.066C274.194 400.582 269.677 405.098 266.129 409.614C262.581 414.131 259.677 419.131 257.419 424.614C255.161 430.098 252.903 436.872 250.645 444.937L230.806 514.614H185.323ZM213.871 574.131C210.323 587.679 209.677 598.485 211.935 606.55C214.194 614.292 219.839 618.163 228.871 618.163C235.968 618.163 242.742 615.421 249.194 609.937C255.645 604.453 261.613 596.389 267.097 585.743L276.774 567.84H295.161L284.516 588.647C278.387 599.937 271.774 609.937 264.677 618.647C257.581 627.356 249.677 634.131 240.968 638.969C232.581 643.808 222.903 646.227 211.935 646.227C198.387 646.227 187.742 642.84 180 636.066C172.258 629.292 167.581 619.937 165.968 608.001C164.677 595.743 166.29 581.872 170.806 566.389L185.323 514.614H230.806L213.871 574.131Z" fill="black"/>
<path d="M1671.46 222C1666.66 222 1662.6 220.333 1659.26 217C1655.93 213.667 1654.26 209.667 1654.26 205C1654.26 200.333 1655.93 196.267 1659.26 192.8C1662.6 189.333 1666.66 187.6 1671.46 187.6C1676.26 187.6 1680.33 189.333 1683.66 192.8C1687 196.267 1688.66 200.333 1688.66 205C1688.66 209.667 1687 213.667 1683.66 217C1680.33 220.333 1676.26 222 1671.46 222ZM1731.31 222C1723.57 222 1717.04 219.8 1711.71 215.4C1706.51 211 1703.91 204.667 1703.91 196.4C1703.91 190.133 1707.11 184.4 1713.51 179.2C1719.91 173.867 1729.97 169.867 1743.71 167.2C1745.84 166.8 1748.24 166.4 1750.91 166C1753.57 165.467 1756.37 164.933 1759.31 164.4V148.6C1759.31 139.533 1758.17 133.2 1755.91 129.6C1753.77 125.867 1750.37 124 1745.71 124C1742.51 124 1739.97 125.067 1738.11 127.2C1736.24 129.2 1735.04 132.733 1734.51 137.8L1734.11 140C1733.84 145.733 1732.44 149.933 1729.91 152.6C1727.37 155.267 1724.24 156.6 1720.51 156.6C1717.04 156.6 1714.17 155.533 1711.91 153.4C1709.64 151.267 1708.51 148.4 1708.51 144.8C1708.51 139.333 1710.37 134.733 1714.11 131C1717.97 127.267 1723.04 124.467 1729.31 122.6C1735.57 120.733 1742.37 119.8 1749.71 119.8C1761.57 119.8 1770.71 122.733 1777.11 128.6C1783.64 134.333 1786.91 143.733 1786.91 156.8V201C1786.91 207 1789.71 210 1795.31 210H1799.71L1801.51 211.6C1798.97 214.8 1796.17 217.267 1793.11 219C1790.17 220.733 1785.97 221.6 1780.51 221.6C1774.64 221.6 1769.97 220.267 1766.51 217.6C1763.17 214.8 1760.97 211.133 1759.91 206.6C1755.91 210.867 1751.77 214.533 1747.51 217.6C1743.37 220.533 1737.97 222 1731.31 222ZM1743.51 209.8C1746.17 209.8 1748.64 209.2 1750.91 208C1753.31 206.667 1756.11 204.667 1759.31 202V168.4C1757.97 168.667 1756.64 168.933 1755.31 169.2C1753.97 169.467 1752.44 169.733 1750.71 170C1744.57 171.6 1739.64 174.333 1735.91 178.2C1732.31 181.933 1730.51 187 1730.51 193.4C1730.51 198.867 1731.77 203 1734.31 205.8C1736.84 208.467 1739.91 209.8 1743.51 209.8ZM1856.22 222C1846.09 222 1837.29 219.933 1829.82 215.8C1822.35 211.533 1816.55 205.533 1812.42 197.8C1808.42 190.067 1806.42 181 1806.42 170.6C1806.42 160.2 1808.55 151.2 1812.82 143.6C1817.22 136 1823.15 130.133 1830.62 126C1838.22 121.867 1846.75 119.8 1856.22 119.8C1865.69 119.8 1874.15 121.867 1881.62 126C1889.09 130 1894.95 135.8 1899.22 143.4C1903.62 151 1905.82 160.067 1905.82 170.6C1905.82 181.133 1903.75 190.267 1899.62 198C1895.62 205.6 1889.89 211.533 1882.42 215.8C1875.09 219.933 1866.35 222 1856.22 222ZM1856.22 218C1860.89 218 1864.62 216.667 1867.42 214C1870.22 211.333 1872.22 206.6 1873.42 199.8C1874.75 193 1875.42 183.4 1875.42 171C1875.42 158.467 1874.75 148.8 1873.42 142C1872.22 135.2 1870.22 130.467 1867.42 127.8C1864.62 125.133 1860.89 123.8 1856.22 123.8C1851.55 123.8 1847.75 125.133 1844.82 127.8C1842.02 130.467 1839.95 135.2 1838.62 142C1837.42 148.8 1836.82 158.467 1836.82 171C1836.82 183.4 1837.42 193 1838.62 199.8C1839.95 206.6 1842.02 211.333 1844.82 214C1847.75 216.667 1851.55 218 1856.22 218Z" fill="black"/>
</svg>
